<svg width="20" height="21" viewBox="0 0 20 21" fill="none" xmlns="http://www.w3.org/2000/svg">
  <title>Settings</title>
  <path
    d="M19.8743 14.0967L17.9982 17.4033C17.7745 17.7974 17.3087 17.9761 16.8852 17.8303L14.1246 16.8799C13.8806 17.0436 13.6276 17.1925 13.3673 17.3258L12.796 20.2327C12.7083 20.6788 12.3232 21 11.8761 21H8.12389C7.67675 21 7.29171 20.6788 7.20403 20.2327L6.6327 17.3258C6.37235 17.1925 6.11945 17.0435 5.8755 16.8799L3.1148 17.8303C2.6913 17.9759 2.2254 17.7974 2.00183 17.4033L0.125721 14.0967C-0.0978489 13.7026 -0.0170517 13.2028 0.318834 12.9024L2.50826 10.9445C2.49981 10.7962 2.49556 10.6477 2.49556 10.5C2.49556 10.3522 2.49981 10.2038 2.50826 10.0554L0.31896 8.0976C-0.0169258 7.79724 -0.097723 7.29737 0.125845 6.90334L2.00196 3.59666C2.22552 3.20263 2.69143 3.02387 3.11493 3.16973L5.8755 4.12007C6.11939 3.9564 6.37235 3.80749 6.6327 3.67424L7.20403 0.767327C7.29171 0.321173 7.67675 0 8.12389 0H11.8761C12.3232 0 12.7083 0.321173 12.796 0.767327L13.3673 3.67424C13.6276 3.80749 13.8805 3.95646 14.1245 4.12007L16.8852 3.16973C17.3086 3.024 17.7745 3.20263 17.9982 3.59666L19.8743 6.90334C20.0978 7.29737 20.017 7.79724 19.6812 8.0976L17.4919 10.0554C17.5002 10.2036 17.5044 10.352 17.5044 10.5C17.5044 10.648 17.5002 10.7965 17.4919 10.9446L19.6812 12.9024C20.017 13.2028 20.0978 13.7026 19.8743 14.0967ZM10 6.68182C7.93103 6.68182 6.24778 8.39465 6.24778 10.5C6.24778 12.6053 7.93103 14.3182 10 14.3182C12.069 14.3182 13.7522 12.6053 13.7522 10.5C13.7522 8.39465 12.069 6.68182 10 6.68182Z"
    fill="#6C757D" />
</svg>