<svg width="28" height="28" viewBox="0 0 28 28" fill="none" xmlns="http://www.w3.org/2000/svg">
<path d="M22.1101 22.1335L13.522 17.5863C13.2982 17.4676 13.0253 17.4839 12.8138 17.6272L6.24684 22.1744C6.00119 22.345 5.89474 22.6548 5.98481 22.94C6.07215 23.2225 6.33691 23.4176 6.63441 23.4176H21.7894C22.1019 23.4176 22.3762 23.2047 22.4513 22.8991C22.5277 22.5947 22.3858 22.2795 22.1101 22.1335Z" fill="white"/>
<path d="M24.9842 20.8368L22.9645 11.7438C22.9153 11.5213 22.7584 11.3398 22.5469 11.2566C22.334 11.1733 22.0951 11.202 21.9095 11.3303L15.3413 15.8774C15.1447 16.0139 15.0342 16.2418 15.0492 16.4779C15.0629 16.7167 15.2007 16.9296 15.4109 17.0402L23.9975 21.5873C24.0985 21.6406 24.2077 21.6679 24.3169 21.6679C24.4629 21.6679 24.6089 21.6215 24.7304 21.5273C24.9419 21.3663 25.0415 21.0974 24.9842 20.8368Z" fill="white"/>
<path d="M20.2324 10.2495C20.1423 9.96429 19.8789 9.77051 19.5801 9.77051H13.3516C12.2189 11.8216 10.543 13.7827 9.85387 14.5497C9.46629 14.9809 8.91086 15.2293 8.33086 15.2293C7.75087 15.2293 7.19543 14.9809 6.80786 14.5497C6.54174 14.2535 6.1296 13.78 5.65742 13.1932L4.00613 20.6253C3.94609 20.8996 4.05936 21.1821 4.29136 21.3391C4.40599 21.4168 4.53973 21.4551 4.67211 21.4551C4.80858 21.4551 4.94368 21.4155 5.06105 21.3336L19.9676 11.0124C20.2147 10.8445 20.3197 10.5347 20.2324 10.2495Z" fill="white"/>
<path d="M8.33113 1.58252C5.69726 1.58252 3.55469 3.7251 3.55469 6.35896C3.55469 8.80996 7.38676 13.1511 7.82346 13.6383C7.95311 13.7816 8.13734 13.8648 8.33113 13.8648C8.52492 13.8648 8.70915 13.7816 8.8388 13.6383C9.2755 13.1511 13.1076 8.80996 13.1076 6.35896C13.1076 3.7251 10.965 1.58252 8.33113 1.58252ZM8.33113 8.40601C7.20116 8.40601 6.28408 7.48893 6.28408 6.35896C6.28408 5.22899 7.20116 4.31192 8.33113 4.31192C9.4611 4.31192 10.3782 5.22899 10.3782 6.35896C10.3782 7.48893 9.4611 8.40601 8.33113 8.40601Z" fill="white"/>
</svg>
