<svg width="20" height="19" viewBox="0 0 20 19" fill="none" xmlns="http://www.w3.org/2000/svg">
<path d="M9.10928 0.745361C9.48042 0.0181102 10.5196 0.0181091 10.8907 0.74536L13.0662 5.00829C13.2115 5.29301 13.4842 5.49111 13.7999 5.54132L18.5264 6.29304C19.3328 6.42128 19.6539 7.40957 19.0769 7.98728L15.6949 11.3736C15.469 11.5998 15.3649 11.9203 15.4147 12.2361L16.1603 16.9636C16.2876 17.7701 15.4469 18.3809 14.7191 18.0107L10.4534 15.8407C10.1685 15.6957 9.83149 15.6957 9.54658 15.8407L5.28086 18.0107C4.55314 18.3809 3.71245 17.7701 3.83966 16.9636L4.58531 12.2361C4.63512 11.9203 4.53097 11.5998 4.30509 11.3736L0.92307 7.98728C0.346101 7.40957 0.667215 6.42128 1.47356 6.29304L6.20012 5.54132C6.51581 5.49111 6.78847 5.29301 6.93377 5.00829L9.10928 0.745361Z" fill="#CED4DA"/>
</svg>
